<mxfile host="app.diagrams.net" modified="2020-08-18T08:33:06.058Z" agent="5.0 (Windows NT 6.1; Win64; x64) AppleWebKit/537.36 (KHTML, like Gecko) Chrome/84.0.4147.125 Safari/537.36" etag="O1dhpAmdWUf4K5zBqNGA" version="13.6.2" type="github">
  <diagram id="kpHI0PAs08cbokcpHM6N" name="Page-1">
    <mxGraphModel dx="941" dy="401" grid="1" gridSize="10" guides="0" tooltips="1" connect="0" arrows="0" fold="1" page="1" pageScale="1" pageWidth="1169" pageHeight="1654" background="#114B5F" math="0" shadow="1">
      <root>
        <mxCell id="0" />
        <mxCell id="1" parent="0" />
        <mxCell id="QWLJbSfea73I5IA6TglM-44" style="edgeStyle=none;orthogonalLoop=1;jettySize=auto;html=1;exitX=0.5;exitY=1;exitDx=0;exitDy=0;endSize=6;strokeWidth=1;fontColor=#E4FDE1;strokeColor=#028090;endArrow=none;endFill=0;labelBackgroundColor=#114B5F;" parent="1" source="QWLJbSfea73I5IA6TglM-33" target="QWLJbSfea73I5IA6TglM-23" edge="1">
          <mxGeometry relative="1" as="geometry" />
        </mxCell>
        <mxCell id="QWLJbSfea73I5IA6TglM-52" style="edgeStyle=none;orthogonalLoop=1;jettySize=auto;html=1;exitX=1;exitY=0;exitDx=0;exitDy=0;entryX=0;entryY=0.5;entryDx=0;entryDy=0;endSize=6;strokeWidth=1;fontColor=#E4FDE1;strokeColor=#028090;endArrow=open;endFill=0;labelBackgroundColor=#114B5F;" parent="1" target="QWLJbSfea73I5IA6TglM-50" edge="1">
          <mxGeometry relative="1" as="geometry">
            <mxPoint x="490" y="340" as="sourcePoint" />
          </mxGeometry>
        </mxCell>
        <mxCell id="QWLJbSfea73I5IA6TglM-53" style="edgeStyle=none;orthogonalLoop=1;jettySize=auto;html=1;exitX=1;exitY=1;exitDx=0;exitDy=0;entryX=0;entryY=0.5;entryDx=0;entryDy=0;endSize=6;strokeWidth=1;fontColor=#E4FDE1;strokeColor=#028090;endArrow=open;endFill=0;labelBackgroundColor=#114B5F;" parent="1" target="QWLJbSfea73I5IA6TglM-51" edge="1">
          <mxGeometry relative="1" as="geometry">
            <mxPoint x="490" y="400" as="sourcePoint" />
          </mxGeometry>
        </mxCell>
        <mxCell id="QWLJbSfea73I5IA6TglM-11" value="Employee" style="whiteSpace=wrap;html=1;fillColor=none;fontColor=#E4FDE1;strokeColor=#028090;" parent="1" vertex="1">
          <mxGeometry x="380" y="340" width="110" height="60" as="geometry" />
        </mxCell>
        <mxCell id="QWLJbSfea73I5IA6TglM-47" style="edgeStyle=none;orthogonalLoop=1;jettySize=auto;html=1;exitX=1;exitY=0.5;exitDx=0;exitDy=0;entryX=0;entryY=0.5;entryDx=0;entryDy=0;endSize=6;strokeWidth=1;fontColor=#E4FDE1;strokeColor=#028090;endArrow=none;endFill=0;labelBackgroundColor=#114B5F;" parent="1" source="QWLJbSfea73I5IA6TglM-14" target="QWLJbSfea73I5IA6TglM-11" edge="1">
          <mxGeometry relative="1" as="geometry" />
        </mxCell>
        <mxCell id="QWLJbSfea73I5IA6TglM-14" value="Salary" style="ellipse;whiteSpace=wrap;html=1;fillColor=none;fontColor=#E4FDE1;strokeColor=#028090;" parent="1" vertex="1">
          <mxGeometry x="170" y="380" width="130" height="30" as="geometry" />
        </mxCell>
        <mxCell id="QWLJbSfea73I5IA6TglM-18" style="edgeStyle=none;orthogonalLoop=1;jettySize=auto;html=1;exitX=1;exitY=1;exitDx=0;exitDy=0;entryX=1;entryY=1;entryDx=0;entryDy=0;fontColor=#E4FDE1;strokeColor=#028090;labelBackgroundColor=#114B5F;" parent="1" source="QWLJbSfea73I5IA6TglM-15" target="QWLJbSfea73I5IA6TglM-15" edge="1">
          <mxGeometry relative="1" as="geometry">
            <mxPoint x="322" y="300" as="targetPoint" />
          </mxGeometry>
        </mxCell>
        <mxCell id="QWLJbSfea73I5IA6TglM-46" style="edgeStyle=none;orthogonalLoop=1;jettySize=auto;html=1;exitX=1;exitY=0.5;exitDx=0;exitDy=0;entryX=0;entryY=0.25;entryDx=0;entryDy=0;endSize=6;strokeWidth=1;fontColor=#E4FDE1;endArrow=none;endFill=0;strokeColor=#028090;labelBackgroundColor=#114B5F;" parent="1" source="QWLJbSfea73I5IA6TglM-15" target="QWLJbSfea73I5IA6TglM-11" edge="1">
          <mxGeometry relative="1" as="geometry" />
        </mxCell>
        <mxCell id="QWLJbSfea73I5IA6TglM-15" value="Employee ID" style="ellipse;whiteSpace=wrap;html=1;fontStyle=4;fillColor=none;fontColor=#E4FDE1;strokeColor=#028090;" parent="1" vertex="1">
          <mxGeometry x="170" y="340" width="120" height="30" as="geometry" />
        </mxCell>
        <mxCell id="QWLJbSfea73I5IA6TglM-16" style="edgeStyle=none;orthogonalLoop=1;jettySize=auto;html=1;entryX=0.5;entryY=1;entryDx=0;entryDy=0;fontColor=#E4FDE1;strokeColor=#028090;labelBackgroundColor=#114B5F;" parent="1" source="QWLJbSfea73I5IA6TglM-15" target="QWLJbSfea73I5IA6TglM-15" edge="1">
          <mxGeometry relative="1" as="geometry" />
        </mxCell>
        <mxCell id="QWLJbSfea73I5IA6TglM-45" style="edgeStyle=none;orthogonalLoop=1;jettySize=auto;html=1;exitX=1;exitY=1;exitDx=0;exitDy=0;entryX=0;entryY=0;entryDx=0;entryDy=0;endSize=6;strokeWidth=1;fontColor=#E4FDE1;endArrow=none;endFill=0;strokeColor=#028090;labelBackgroundColor=#114B5F;" parent="1" source="QWLJbSfea73I5IA6TglM-20" target="QWLJbSfea73I5IA6TglM-11" edge="1">
          <mxGeometry relative="1" as="geometry" />
        </mxCell>
        <mxCell id="QWLJbSfea73I5IA6TglM-20" value="Emp_Address" style="ellipse;whiteSpace=wrap;html=1;fillColor=none;fontColor=#E4FDE1;strokeColor=#028090;" parent="1" vertex="1">
          <mxGeometry x="160" y="300" width="130" height="30" as="geometry" />
        </mxCell>
        <mxCell id="QWLJbSfea73I5IA6TglM-49" style="edgeStyle=none;orthogonalLoop=1;jettySize=auto;html=1;exitX=0.5;exitY=1;exitDx=0;exitDy=0;entryX=0.183;entryY=-0.017;entryDx=0;entryDy=0;entryPerimeter=0;endSize=6;strokeWidth=1;fontColor=#E4FDE1;strokeColor=#028090;endArrow=none;endFill=0;labelBackgroundColor=#114B5F;" parent="1" source="QWLJbSfea73I5IA6TglM-23" target="QWLJbSfea73I5IA6TglM-11" edge="1">
          <mxGeometry relative="1" as="geometry" />
        </mxCell>
        <mxCell id="QWLJbSfea73I5IA6TglM-23" value="Name" style="ellipse;whiteSpace=wrap;html=1;fillColor=none;fontColor=#E4FDE1;strokeColor=#028090;" parent="1" vertex="1">
          <mxGeometry x="240" y="240" width="120" height="40" as="geometry" />
        </mxCell>
        <mxCell id="QWLJbSfea73I5IA6TglM-48" style="edgeStyle=none;orthogonalLoop=1;jettySize=auto;html=1;exitX=1;exitY=0.5;exitDx=0;exitDy=0;entryX=0;entryY=0.75;entryDx=0;entryDy=0;endSize=6;strokeWidth=1;fontColor=#E4FDE1;strokeColor=#028090;endArrow=none;endFill=0;labelBackgroundColor=#114B5F;" parent="1" source="QWLJbSfea73I5IA6TglM-25" target="QWLJbSfea73I5IA6TglM-11" edge="1">
          <mxGeometry relative="1" as="geometry" />
        </mxCell>
        <mxCell id="QWLJbSfea73I5IA6TglM-25" value="Sex" style="ellipse;whiteSpace=wrap;html=1;fillColor=none;fontColor=#E4FDE1;strokeColor=#028090;" parent="1" vertex="1">
          <mxGeometry x="180" y="420" width="120" height="30" as="geometry" />
        </mxCell>
        <mxCell id="QWLJbSfea73I5IA6TglM-37" style="edgeStyle=none;orthogonalLoop=1;jettySize=auto;html=1;exitX=1;exitY=1;exitDx=0;exitDy=0;endSize=6;strokeWidth=1;fontColor=#E4FDE1;endArrow=none;endFill=0;strokeColor=#028090;labelBackgroundColor=#114B5F;" parent="1" source="QWLJbSfea73I5IA6TglM-31" target="QWLJbSfea73I5IA6TglM-23" edge="1">
          <mxGeometry relative="1" as="geometry" />
        </mxCell>
        <mxCell id="QWLJbSfea73I5IA6TglM-31" value="First Name" style="ellipse;whiteSpace=wrap;html=1;fillColor=none;fontColor=#E4FDE1;strokeColor=#028090;" parent="1" vertex="1">
          <mxGeometry x="130" y="210" width="120" height="30" as="geometry" />
        </mxCell>
        <mxCell id="QWLJbSfea73I5IA6TglM-33" value="Middle name" style="ellipse;whiteSpace=wrap;html=1;fillColor=none;fontColor=#E4FDE1;strokeColor=#028090;" parent="1" vertex="1">
          <mxGeometry x="210" y="170" width="120" height="30" as="geometry" />
        </mxCell>
        <mxCell id="QWLJbSfea73I5IA6TglM-39" value="Last Name" style="ellipse;whiteSpace=wrap;html=1;align=center;fillColor=none;fontColor=#E4FDE1;strokeColor=#028090;" parent="1" vertex="1">
          <mxGeometry x="340" y="170" width="100" height="30" as="geometry" />
        </mxCell>
        <mxCell id="QWLJbSfea73I5IA6TglM-43" style="edgeStyle=none;orthogonalLoop=1;jettySize=auto;html=1;exitX=0.5;exitY=1;exitDx=0;exitDy=0;endSize=6;strokeWidth=1;fontColor=#E4FDE1;strokeColor=#028090;startArrow=none;startFill=0;endArrow=none;endFill=0;labelBackgroundColor=#114B5F;" parent="1" source="QWLJbSfea73I5IA6TglM-42" target="QWLJbSfea73I5IA6TglM-11" edge="1">
          <mxGeometry relative="1" as="geometry" />
        </mxCell>
        <mxCell id="QWLJbSfea73I5IA6TglM-42" value="Mob No" style="ellipse;shape=doubleEllipse;margin=3;whiteSpace=wrap;html=1;align=center;fillColor=none;fontColor=#E4FDE1;strokeColor=#028090;" parent="1" vertex="1">
          <mxGeometry x="380" y="250" width="100" height="40" as="geometry" />
        </mxCell>
        <mxCell id="QWLJbSfea73I5IA6TglM-55" style="edgeStyle=none;orthogonalLoop=1;jettySize=auto;html=1;exitX=1;exitY=0.5;exitDx=0;exitDy=0;entryX=0;entryY=0.5;entryDx=0;entryDy=0;endSize=6;strokeWidth=1;fontColor=#E4FDE1;strokeColor=#028090;endArrow=open;endFill=0;labelBackgroundColor=#114B5F;" parent="1" source="QWLJbSfea73I5IA6TglM-50" target="QWLJbSfea73I5IA6TglM-54" edge="1">
          <mxGeometry relative="1" as="geometry" />
        </mxCell>
        <mxCell id="QWLJbSfea73I5IA6TglM-50" value="Has" style="shape=rhombus;perimeter=rhombusPerimeter;whiteSpace=wrap;html=1;align=center;fillColor=none;fontColor=#E4FDE1;strokeColor=#028090;" parent="1" vertex="1">
          <mxGeometry x="570" y="280" width="120" height="60" as="geometry" />
        </mxCell>
        <mxCell id="QWLJbSfea73I5IA6TglM-58" style="edgeStyle=none;orthogonalLoop=1;jettySize=auto;html=1;exitX=1;exitY=0.5;exitDx=0;exitDy=0;endSize=6;strokeWidth=1;fontColor=#E4FDE1;entryX=0;entryY=0.575;entryDx=0;entryDy=0;entryPerimeter=0;strokeColor=#028090;endArrow=open;endFill=0;labelBackgroundColor=#114B5F;" parent="1" source="QWLJbSfea73I5IA6TglM-51" target="QWLJbSfea73I5IA6TglM-56" edge="1">
          <mxGeometry relative="1" as="geometry">
            <mxPoint x="770" y="450" as="targetPoint" />
          </mxGeometry>
        </mxCell>
        <mxCell id="QWLJbSfea73I5IA6TglM-51" value="has" style="shape=rhombus;perimeter=rhombusPerimeter;whiteSpace=wrap;html=1;align=center;fillColor=none;fontColor=#E4FDE1;strokeColor=#028090;" parent="1" vertex="1">
          <mxGeometry x="560" y="380" width="120" height="60" as="geometry" />
        </mxCell>
        <mxCell id="QWLJbSfea73I5IA6TglM-54" value="Department" style="whiteSpace=wrap;html=1;align=center;fillColor=none;fontColor=#E4FDE1;strokeColor=#028090;" parent="1" vertex="1">
          <mxGeometry x="750" y="290" width="100" height="40" as="geometry" />
        </mxCell>
        <mxCell id="QWLJbSfea73I5IA6TglM-56" value="Role" style="whiteSpace=wrap;html=1;align=center;fillColor=none;fontColor=#E4FDE1;strokeColor=#028090;" parent="1" vertex="1">
          <mxGeometry x="750" y="390" width="100" height="40" as="geometry" />
        </mxCell>
        <mxCell id="QWLJbSfea73I5IA6TglM-57" style="edgeStyle=none;orthogonalLoop=1;jettySize=auto;html=1;entryX=0;entryY=0.5;entryDx=0;entryDy=0;endSize=6;strokeWidth=1;fontColor=#E4FDE1;strokeColor=#028090;labelBackgroundColor=#114B5F;" parent="1" source="QWLJbSfea73I5IA6TglM-56" target="QWLJbSfea73I5IA6TglM-56" edge="1">
          <mxGeometry relative="1" as="geometry" />
        </mxCell>
        <mxCell id="QWLJbSfea73I5IA6TglM-63" style="edgeStyle=none;orthogonalLoop=1;jettySize=auto;html=1;exitX=0.5;exitY=1;exitDx=0;exitDy=0;entryX=1;entryY=0;entryDx=0;entryDy=0;endSize=6;strokeWidth=1;fontColor=#E4FDE1;strokeColor=#028090;endArrow=none;endFill=0;labelBackgroundColor=#114B5F;" parent="1" source="QWLJbSfea73I5IA6TglM-59" target="QWLJbSfea73I5IA6TglM-54" edge="1">
          <mxGeometry relative="1" as="geometry" />
        </mxCell>
        <mxCell id="QWLJbSfea73I5IA6TglM-59" value="Dept. Name" style="ellipse;whiteSpace=wrap;html=1;align=center;fillColor=none;fontColor=#E4FDE1;strokeColor=#028090;" parent="1" vertex="1">
          <mxGeometry x="870" y="180" width="100" height="40" as="geometry" />
        </mxCell>
        <mxCell id="QWLJbSfea73I5IA6TglM-64" style="edgeStyle=none;orthogonalLoop=1;jettySize=auto;html=1;exitX=0;exitY=1;exitDx=0;exitDy=0;entryX=1;entryY=0.75;entryDx=0;entryDy=0;endSize=6;strokeWidth=1;fontColor=#E4FDE1;strokeColor=#028090;endArrow=none;endFill=0;labelBackgroundColor=#114B5F;" parent="1" target="QWLJbSfea73I5IA6TglM-54" edge="1">
          <mxGeometry relative="1" as="geometry">
            <mxPoint x="944.6446609406726" y="264.14213562373106" as="sourcePoint" />
          </mxGeometry>
        </mxCell>
        <mxCell id="QWLJbSfea73I5IA6TglM-60" value="Location" style="ellipse;whiteSpace=wrap;html=1;align=center;fillColor=none;fontColor=#E4FDE1;strokeColor=#028090;" parent="1" vertex="1">
          <mxGeometry x="940" y="240" width="100" height="40" as="geometry" />
        </mxCell>
        <mxCell id="QWLJbSfea73I5IA6TglM-62" style="edgeStyle=none;orthogonalLoop=1;jettySize=auto;html=1;entryX=0.59;entryY=0;entryDx=0;entryDy=0;entryPerimeter=0;endSize=6;strokeWidth=1;fontColor=#E4FDE1;strokeColor=#028090;endArrow=none;endFill=0;labelBackgroundColor=#114B5F;" parent="1" source="QWLJbSfea73I5IA6TglM-61" target="QWLJbSfea73I5IA6TglM-54" edge="1">
          <mxGeometry relative="1" as="geometry" />
        </mxCell>
        <mxCell id="QWLJbSfea73I5IA6TglM-61" value="Dept. No" style="ellipse;whiteSpace=wrap;html=1;align=center;fontStyle=4;fillColor=none;fontColor=#E4FDE1;strokeColor=#028090;" parent="1" vertex="1">
          <mxGeometry x="750" y="170" width="100" height="40" as="geometry" />
        </mxCell>
        <mxCell id="QWLJbSfea73I5IA6TglM-69" style="edgeStyle=none;orthogonalLoop=1;jettySize=auto;html=1;exitX=0;exitY=0.5;exitDx=0;exitDy=0;entryX=1;entryY=0;entryDx=0;entryDy=0;endSize=6;strokeWidth=1;fontColor=#E4FDE1;strokeColor=#028090;endArrow=none;endFill=0;labelBackgroundColor=#114B5F;" parent="1" source="QWLJbSfea73I5IA6TglM-67" target="QWLJbSfea73I5IA6TglM-56" edge="1">
          <mxGeometry relative="1" as="geometry" />
        </mxCell>
        <mxCell id="QWLJbSfea73I5IA6TglM-67" value="Name&amp;nbsp;" style="ellipse;whiteSpace=wrap;html=1;align=center;fillColor=none;fontColor=#E4FDE1;strokeColor=#028090;" parent="1" vertex="1">
          <mxGeometry x="880" y="360" width="100" height="40" as="geometry" />
        </mxCell>
        <mxCell id="QWLJbSfea73I5IA6TglM-70" style="edgeStyle=none;orthogonalLoop=1;jettySize=auto;html=1;exitX=0;exitY=0.5;exitDx=0;exitDy=0;entryX=0.75;entryY=1;entryDx=0;entryDy=0;endSize=6;strokeWidth=1;fontColor=#E4FDE1;strokeColor=#028090;endArrow=none;endFill=0;labelBackgroundColor=#114B5F;" parent="1" source="QWLJbSfea73I5IA6TglM-68" target="QWLJbSfea73I5IA6TglM-56" edge="1">
          <mxGeometry relative="1" as="geometry" />
        </mxCell>
        <mxCell id="QWLJbSfea73I5IA6TglM-68" value="Description" style="ellipse;whiteSpace=wrap;html=1;align=center;fillColor=none;fontColor=#E4FDE1;strokeColor=#028090;" parent="1" vertex="1">
          <mxGeometry x="880" y="440" width="100" height="40" as="geometry" />
        </mxCell>
        <mxCell id="QWLJbSfea73I5IA6TglM-72" style="edgeStyle=none;orthogonalLoop=1;jettySize=auto;html=1;endSize=6;strokeWidth=1;fontColor=#E4FDE1;strokeColor=#028090;endArrow=open;endFill=0;labelBackgroundColor=#114B5F;" parent="1" target="QWLJbSfea73I5IA6TglM-71" edge="1">
          <mxGeometry relative="1" as="geometry">
            <mxPoint x="426" y="400" as="sourcePoint" />
          </mxGeometry>
        </mxCell>
        <mxCell id="QWLJbSfea73I5IA6TglM-78" style="edgeStyle=none;orthogonalLoop=1;jettySize=auto;html=1;exitX=0;exitY=1;exitDx=0;exitDy=0;entryX=0.77;entryY=0.125;entryDx=0;entryDy=0;entryPerimeter=0;endSize=6;strokeWidth=1;fontColor=#E4FDE1;strokeColor=#028090;endArrow=none;endFill=0;labelBackgroundColor=#114B5F;" parent="1" source="QWLJbSfea73I5IA6TglM-71" target="QWLJbSfea73I5IA6TglM-75" edge="1">
          <mxGeometry relative="1" as="geometry" />
        </mxCell>
        <mxCell id="QWLJbSfea73I5IA6TglM-79" style="edgeStyle=none;orthogonalLoop=1;jettySize=auto;html=1;exitX=1;exitY=1;exitDx=0;exitDy=0;entryX=0.38;entryY=0.05;entryDx=0;entryDy=0;entryPerimeter=0;endSize=6;strokeWidth=1;fontColor=#E4FDE1;strokeColor=#028090;endArrow=none;endFill=0;labelBackgroundColor=#114B5F;" parent="1" source="QWLJbSfea73I5IA6TglM-71" target="QWLJbSfea73I5IA6TglM-74" edge="1">
          <mxGeometry relative="1" as="geometry" />
        </mxCell>
        <mxCell id="QWLJbSfea73I5IA6TglM-71" value="Has" style="shape=rhombus;perimeter=rhombusPerimeter;whiteSpace=wrap;html=1;align=center;fillColor=none;fontColor=#E4FDE1;strokeColor=#028090;" parent="1" vertex="1">
          <mxGeometry x="370" y="450" width="120" height="60" as="geometry" />
        </mxCell>
        <mxCell id="QWLJbSfea73I5IA6TglM-74" value="Password" style="ellipse;whiteSpace=wrap;html=1;align=center;fillColor=none;fontColor=#E4FDE1;strokeColor=#028090;" parent="1" vertex="1">
          <mxGeometry x="450" y="540" width="100" height="40" as="geometry" />
        </mxCell>
        <mxCell id="QWLJbSfea73I5IA6TglM-75" value="Login id" style="ellipse;whiteSpace=wrap;html=1;align=center;fontStyle=4;fillColor=none;fontColor=#E4FDE1;strokeColor=#028090;" parent="1" vertex="1">
          <mxGeometry x="310" y="540" width="100" height="40" as="geometry" />
        </mxCell>
        <mxCell id="QWLJbSfea73I5IA6TglM-80" value="Name :- Abhishek Raj Ravi&lt;br&gt;Reg. No :- 19105109902&lt;br&gt;Roll No :- 19DCS03" style="whiteSpace=wrap;html=1;absoluteArcSize=1;arcSize=14;strokeWidth=2;fillColor=none;fontColor=#E4FDE1;strokeColor=none;" parent="1" vertex="1">
          <mxGeometry x="610" y="500" width="240" height="110" as="geometry" />
        </mxCell>
        <mxCell id="QWLJbSfea73I5IA6TglM-82" value="1. Employee Management System" style="text;align=center;verticalAlign=middle;fontColor=#E4FDE1;fontStyle=1;fontSize=31;labelBackgroundColor=none;labelBorderColor=none;whiteSpace=wrap;html=1;glass=0;" parent="1" vertex="1">
          <mxGeometry x="300" y="70" width="510" height="60" as="geometry" />
        </mxCell>
        <mxCell id="QWLJbSfea73I5IA6TglM-83" value="2. Library Management System" style="text;html=1;fillColor=none;align=center;verticalAlign=middle;whiteSpace=wrap;glass=0;labelBackgroundColor=none;fontSize=31;fontColor=#E4FDE1;" parent="1" vertex="1">
          <mxGeometry x="207" y="660" width="640" height="50" as="geometry" />
        </mxCell>
        <mxCell id="QWLJbSfea73I5IA6TglM-84" value="" style="endArrow=none;html=1;strokeWidth=1;fontColor=#E4FDE1;entryX=0.46;entryY=1;entryDx=0;entryDy=0;entryPerimeter=0;strokeColor=#028090;labelBackgroundColor=#114B5F;" parent="1" target="QWLJbSfea73I5IA6TglM-39" edge="1">
          <mxGeometry width="50" height="50" relative="1" as="geometry">
            <mxPoint x="320" y="240" as="sourcePoint" />
            <mxPoint x="360" y="230" as="targetPoint" />
            <Array as="points" />
          </mxGeometry>
        </mxCell>
        <mxCell id="QWLJbSfea73I5IA6TglM-86" value="Books" style="whiteSpace=wrap;html=1;align=center;strokeColor=#028090;fontColor=#E4FDE1;fillColor=none;" parent="1" vertex="1">
          <mxGeometry x="220" y="920" width="110" height="40" as="geometry" />
        </mxCell>
        <mxCell id="QWLJbSfea73I5IA6TglM-87" value="Publish By" style="shape=rhombus;perimeter=rhombusPerimeter;whiteSpace=wrap;html=1;align=center;strokeColor=#028090;fontColor=#E4FDE1;fillColor=none;" parent="1" vertex="1">
          <mxGeometry x="500" y="910" width="120" height="60" as="geometry" />
        </mxCell>
        <mxCell id="QWLJbSfea73I5IA6TglM-88" value="publisher" style="whiteSpace=wrap;html=1;align=center;strokeColor=#028090;fontColor=#E4FDE1;fillColor=none;" parent="1" vertex="1">
          <mxGeometry x="790" y="920" width="100" height="40" as="geometry" />
        </mxCell>
        <mxCell id="QWLJbSfea73I5IA6TglM-89" value="Attribute" style="ellipse;whiteSpace=wrap;html=1;align=center;strokeColor=#028090;fontColor=#E4FDE1;fillColor=none;" parent="1" vertex="1">
          <mxGeometry x="130" y="840" width="100" height="40" as="geometry" />
        </mxCell>
        <mxCell id="QWLJbSfea73I5IA6TglM-90" value="Attribute" style="ellipse;whiteSpace=wrap;html=1;align=center;strokeColor=#028090;fontColor=#E4FDE1;fillColor=none;" parent="1" vertex="1">
          <mxGeometry x="60" y="960" width="100" height="40" as="geometry" />
        </mxCell>
        <mxCell id="QWLJbSfea73I5IA6TglM-91" value="Attribute" style="ellipse;whiteSpace=wrap;html=1;align=center;strokeColor=#028090;fontColor=#E4FDE1;fillColor=none;" parent="1" vertex="1">
          <mxGeometry x="70" y="900" width="100" height="40" as="geometry" />
        </mxCell>
        <mxCell id="QWLJbSfea73I5IA6TglM-92" value="Attribute" style="ellipse;whiteSpace=wrap;html=1;align=center;strokeColor=#028090;fontColor=#E4FDE1;fillColor=none;" parent="1" vertex="1">
          <mxGeometry x="250" y="830" width="100" height="40" as="geometry" />
        </mxCell>
        <mxCell id="QWLJbSfea73I5IA6TglM-93" value="Attribute" style="ellipse;whiteSpace=wrap;html=1;align=center;strokeColor=#028090;fontColor=#E4FDE1;fillColor=none;" parent="1" vertex="1">
          <mxGeometry x="80" y="1020" width="100" height="40" as="geometry" />
        </mxCell>
        <mxCell id="QWLJbSfea73I5IA6TglM-95" value="" style="endArrow=none;html=1;exitX=0.518;exitY=0.05;exitDx=0;exitDy=0;exitPerimeter=0;strokeColor=#028090;fontColor=#E4FDE1;labelBackgroundColor=#114B5F;" parent="1" source="QWLJbSfea73I5IA6TglM-86" edge="1">
          <mxGeometry width="50" height="50" relative="1" as="geometry">
            <mxPoint x="250" y="920" as="sourcePoint" />
            <mxPoint x="300" y="870" as="targetPoint" />
          </mxGeometry>
        </mxCell>
        <mxCell id="QWLJbSfea73I5IA6TglM-96" value="" style="endArrow=none;html=1;exitX=0.51;exitY=1;exitDx=0;exitDy=0;exitPerimeter=0;entryX=0.091;entryY=0.025;entryDx=0;entryDy=0;entryPerimeter=0;strokeColor=#028090;fontColor=#E4FDE1;labelBackgroundColor=#114B5F;" parent="1" source="QWLJbSfea73I5IA6TglM-89" target="QWLJbSfea73I5IA6TglM-86" edge="1">
          <mxGeometry width="50" height="50" relative="1" as="geometry">
            <mxPoint x="210" y="890" as="sourcePoint" />
            <mxPoint x="233.01999999999998" y="838" as="targetPoint" />
          </mxGeometry>
        </mxCell>
        <mxCell id="QWLJbSfea73I5IA6TglM-97" value="" style="endArrow=none;html=1;exitX=0.96;exitY=0.8;exitDx=0;exitDy=0;exitPerimeter=0;entryX=-0.009;entryY=0.6;entryDx=0;entryDy=0;entryPerimeter=0;strokeColor=#028090;fontColor=#E4FDE1;labelBackgroundColor=#114B5F;" parent="1" source="QWLJbSfea73I5IA6TglM-91" target="QWLJbSfea73I5IA6TglM-86" edge="1">
          <mxGeometry width="50" height="50" relative="1" as="geometry">
            <mxPoint x="180" y="940" as="sourcePoint" />
            <mxPoint x="203.01999999999998" y="888" as="targetPoint" />
          </mxGeometry>
        </mxCell>
        <mxCell id="QWLJbSfea73I5IA6TglM-98" value="" style="endArrow=none;html=1;entryX=0.082;entryY=1;entryDx=0;entryDy=0;entryPerimeter=0;strokeColor=#028090;fontColor=#E4FDE1;labelBackgroundColor=#114B5F;" parent="1" source="QWLJbSfea73I5IA6TglM-90" target="QWLJbSfea73I5IA6TglM-86" edge="1">
          <mxGeometry width="50" height="50" relative="1" as="geometry">
            <mxPoint x="170" y="990" as="sourcePoint" />
            <mxPoint x="230" y="962" as="targetPoint" />
          </mxGeometry>
        </mxCell>
        <mxCell id="QWLJbSfea73I5IA6TglM-99" value="" style="endArrow=none;html=1;exitX=0.8;exitY=0;exitDx=0;exitDy=0;exitPerimeter=0;entryX=0.473;entryY=1.05;entryDx=0;entryDy=0;entryPerimeter=0;strokeColor=#028090;fontColor=#E4FDE1;labelBackgroundColor=#114B5F;" parent="1" source="QWLJbSfea73I5IA6TglM-93" target="QWLJbSfea73I5IA6TglM-86" edge="1">
          <mxGeometry width="50" height="50" relative="1" as="geometry">
            <mxPoint x="270" y="1040" as="sourcePoint" />
            <mxPoint x="293.02" y="988" as="targetPoint" />
          </mxGeometry>
        </mxCell>
        <mxCell id="QWLJbSfea73I5IA6TglM-100" value="" style="endArrow=openThin;html=1;exitX=1.018;exitY=0.575;exitDx=0;exitDy=0;exitPerimeter=0;endFill=0;entryX=0.033;entryY=0.5;entryDx=0;entryDy=0;entryPerimeter=0;strokeColor=#028090;fontColor=#E4FDE1;labelBackgroundColor=#114B5F;" parent="1" source="QWLJbSfea73I5IA6TglM-86" target="QWLJbSfea73I5IA6TglM-87" edge="1">
          <mxGeometry width="50" height="50" relative="1" as="geometry">
            <mxPoint x="400" y="940" as="sourcePoint" />
            <mxPoint x="499" y="943" as="targetPoint" />
          </mxGeometry>
        </mxCell>
        <mxCell id="QWLJbSfea73I5IA6TglM-101" value="" style="endArrow=classicThin;html=1;exitX=0.942;exitY=0.483;exitDx=0;exitDy=0;exitPerimeter=0;entryX=0.02;entryY=0.4;entryDx=0;entryDy=0;entryPerimeter=0;endFill=1;strokeColor=#028090;fontColor=#E4FDE1;labelBackgroundColor=#114B5F;" parent="1" source="QWLJbSfea73I5IA6TglM-87" target="QWLJbSfea73I5IA6TglM-88" edge="1">
          <mxGeometry width="50" height="50" relative="1" as="geometry">
            <mxPoint x="710" y="940" as="sourcePoint" />
            <mxPoint x="733.02" y="888" as="targetPoint" />
          </mxGeometry>
        </mxCell>
        <mxCell id="QWLJbSfea73I5IA6TglM-102" value="Address" style="ellipse;whiteSpace=wrap;html=1;align=center;strokeColor=#028090;fontColor=#E4FDE1;fillColor=none;" parent="1" vertex="1">
          <mxGeometry x="950" y="930" width="100" height="40" as="geometry" />
        </mxCell>
        <mxCell id="QWLJbSfea73I5IA6TglM-103" value="&lt;u&gt;Pub_id&lt;/u&gt;" style="ellipse;whiteSpace=wrap;html=1;align=center;strokeColor=#028090;fontColor=#E4FDE1;fillColor=none;" parent="1" vertex="1">
          <mxGeometry x="800" y="840" width="100" height="40" as="geometry" />
        </mxCell>
        <mxCell id="QWLJbSfea73I5IA6TglM-104" value="Name" style="ellipse;whiteSpace=wrap;html=1;align=center;strokeColor=#028090;fontColor=#E4FDE1;fillColor=none;" parent="1" vertex="1">
          <mxGeometry x="920" y="860" width="100" height="40" as="geometry" />
        </mxCell>
        <mxCell id="QWLJbSfea73I5IA6TglM-105" value="" style="endArrow=none;html=1;exitX=0;exitY=0.675;exitDx=0;exitDy=0;exitPerimeter=0;entryX=1;entryY=0.8;entryDx=0;entryDy=0;entryPerimeter=0;strokeColor=#028090;fontColor=#E4FDE1;labelBackgroundColor=#114B5F;" parent="1" source="QWLJbSfea73I5IA6TglM-102" target="QWLJbSfea73I5IA6TglM-88" edge="1">
          <mxGeometry width="50" height="50" relative="1" as="geometry">
            <mxPoint x="870" y="1060" as="sourcePoint" />
            <mxPoint x="890.01" y="1091" as="targetPoint" />
          </mxGeometry>
        </mxCell>
        <mxCell id="QWLJbSfea73I5IA6TglM-106" value="" style="endArrow=none;html=1;exitX=0.09;exitY=0.9;exitDx=0;exitDy=0;exitPerimeter=0;entryX=1.02;entryY=0.15;entryDx=0;entryDy=0;entryPerimeter=0;strokeColor=#028090;fontColor=#E4FDE1;labelBackgroundColor=#114B5F;" parent="1" source="QWLJbSfea73I5IA6TglM-104" target="QWLJbSfea73I5IA6TglM-88" edge="1">
          <mxGeometry width="50" height="50" relative="1" as="geometry">
            <mxPoint x="1077" y="960" as="sourcePoint" />
            <mxPoint x="920" y="947" as="targetPoint" />
          </mxGeometry>
        </mxCell>
        <mxCell id="QWLJbSfea73I5IA6TglM-107" value="" style="endArrow=none;html=1;entryX=0.62;entryY=0;entryDx=0;entryDy=0;entryPerimeter=0;strokeColor=#028090;fontColor=#E4FDE1;labelBackgroundColor=#114B5F;" parent="1" source="QWLJbSfea73I5IA6TglM-103" target="QWLJbSfea73I5IA6TglM-88" edge="1">
          <mxGeometry width="50" height="50" relative="1" as="geometry">
            <mxPoint x="840" y="900" as="sourcePoint" />
            <mxPoint x="899.02" y="870" as="targetPoint" />
          </mxGeometry>
        </mxCell>
        <mxCell id="QWLJbSfea73I5IA6TglM-108" value="Brrow By" style="strokeWidth=2;html=1;shape=mxgraph.flowchart.decision;whiteSpace=wrap;strokeColor=#028090;fontColor=#E4FDE1;fillColor=none;" parent="1" vertex="1">
          <mxGeometry x="210" y="1120" width="140" height="80" as="geometry" />
        </mxCell>
        <mxCell id="QWLJbSfea73I5IA6TglM-110" value="" style="endArrow=classicThin;html=1;endFill=1;entryX=0.5;entryY=-0.037;entryDx=0;entryDy=0;entryPerimeter=0;strokeColor=#028090;fontColor=#E4FDE1;labelBackgroundColor=#114B5F;" parent="1" source="QWLJbSfea73I5IA6TglM-86" target="QWLJbSfea73I5IA6TglM-108" edge="1">
          <mxGeometry width="50" height="50" relative="1" as="geometry">
            <mxPoint x="290" y="960" as="sourcePoint" />
            <mxPoint x="280" y="1110" as="targetPoint" />
          </mxGeometry>
        </mxCell>
        <mxCell id="QWLJbSfea73I5IA6TglM-111" value="Member" style="whiteSpace=wrap;html=1;align=center;strokeColor=#028090;fontColor=#E4FDE1;fillColor=none;" parent="1" vertex="1">
          <mxGeometry x="550" y="1140" width="100" height="40" as="geometry" />
        </mxCell>
        <mxCell id="QWLJbSfea73I5IA6TglM-112" value="" style="endArrow=open;html=1;exitX=0.929;exitY=0.45;exitDx=0;exitDy=0;exitPerimeter=0;entryX=0;entryY=0.576;entryDx=0;entryDy=0;entryPerimeter=0;endFill=0;strokeColor=#028090;fontColor=#E4FDE1;labelBackgroundColor=#114B5F;" parent="1" source="QWLJbSfea73I5IA6TglM-108" target="QWLJbSfea73I5IA6TglM-111" edge="1">
          <mxGeometry width="50" height="50" relative="1" as="geometry">
            <mxPoint x="370" y="1180" as="sourcePoint" />
            <mxPoint x="420" y="1130" as="targetPoint" />
          </mxGeometry>
        </mxCell>
      </root>
    </mxGraphModel>
  </diagram>
</mxfile>
